<svg id="Layer_1" data-name="Layer 1" xmlns="http://www.w3.org/2000/svg" viewBox="0 0 512 512"><defs><style>.cls-1{fill:#443c59;}.cls-1,.cls-2,.cls-3,.cls-4,.cls-5,.cls-6,.cls-7,.cls-8{fill-rule:evenodd;}.cls-2{fill:none;stroke:#d1d2d2;stroke-miterlimit:10;stroke-width:0.75px;}.cls-3{fill:#6fba45;}.cls-4{fill:#c11e5e;}.cls-5{fill:#22b5dd;}.cls-6{fill:#dae260;}.cls-7{fill:#e97324;}.cls-8{fill:#d1d2d2;}</style></defs><path class="cls-1" d="M180.28,355.54c-10.18,15.81-8,43-18.35,57.55-6.69,9.45-18.06,14.05-22,22-9.71,19.7,3.21,53.23,23.25,53.67,30.9.59,25.71-37.11,27.83-57.53a429.21,429.21,0,0,1,10.47-57.89c2.37-9.52,5.89-21.32-3.17-27.88C189.4,344.37,183.79,350.05,180.28,355.54Z"/><path class="cls-2" d="M140.72,94.07s109.14,71,108.69,166.28"/><path class="cls-2" d="M311,63.51s-78.31,104-45.28,193.43"/><path class="cls-3" d="M239.83,265.34c-13.53-15.24-8.6-55.33,18.95-49,12.26,2.8,23.68,28.44,16.18,42.87l23,86.49c2.05,26.67,14.08,67.6,6.81,87.59-1.47,4.07-8.34,15.14-13.53,16.22-7.34,1.48-19.6-10.16-22.63-15.87-10.12-19-13.86-54.11-19.86-78.42Z"/><path class="cls-4" d="M49.39,205.15c11.25,11,29.76,2.11,47.51,5.44,16.75,3.08,38.75,18.3,54.3,29.21,7.2,5.07,16,10.4,25.41,17.08,7.64,5.34,17.4,15.89,26.84,15.1,31.56-2.61.1-31.3-7.77-39.18-8.65-8.58-16.43-18.11-24.25-25-13.05-11.46-34.77-25.35-53-36.36-8.25-5-17.09-11-28.49-14.81C79.43,153.05,61.53,147,54.32,150,41.87,155.19,36.23,192.21,49.39,205.15Z"/><path class="cls-5" d="M406.12,88.59c-18,10.18-33.41,26-46.79,42.72-12.68,15.89-27.36,34.55-36,50.33-4.92,9-8.26,19.13-14.23,31.82-4.2,9-15.46,25-10.13,35.43,1.23,2.38,8.77,6.54,17.07,3.89s15.05-16.25,20-23.38c16.36-23.36,34.45-56.78,59.11-70.79,15.28-8.68,35.55-7.8,41.95-21.16,9.33-19.61-12.3-52.95-27.81-50.31-.89.14-1.26,1-1.53,1.13C407.31,88.44,406.58,88.34,406.12,88.59Z"/><path class="cls-1" d="M118.09,312.67c11.91-1.21,35.74-6.05,36.28-14.13.7-9.84-16.92-19.31-26.21-26.44C110.75,258.7,94.29,243.42,74,258.39,63.65,293.81,86.23,316,118.09,312.67Z"/><path class="cls-1" d="M364.69,231.17c-5.79,9.24-18.34,25.3-13.93,33.46,3.46,6.47,28.86,2.77,39.62-.07,32-8.39,43.46-39,21-66.63C387.14,192.54,375.48,213.92,364.69,231.17Z"/><path class="cls-6" d="M106.2,428.46c12.07-15.58,15.72-36.84,31.27-57.27,7.9-10.32,23.12-24.93,35.29-34.67,1.35-1.09,10.61-7.77,7.67-15.12-4.8-12.14-36.49,1.67-44.62,6.09C113,340,83,380.12,75.93,403.59c-1.9,6.33-2,16.89.11,25C82.64,443.74,98.9,437.83,106.2,428.46Z"/><path class="cls-7" d="M363.3,302.86c17.26,5.83,29.29,11.05,44.13,20.65,20.57,13.26,32.05,31.06,48.86,42.3,4.7,3.14,14.2,7,19.86,5.06,10.69-3.62,10.54-22.23,4.32-34.37-6.13-11.9-24.63-25-35.93-32.46-22-14.49-48.84-25.48-75.58-22.89A45.76,45.76,0,0,0,357.41,284C343.7,291,356.27,300.48,363.3,302.86Z"/><path class="cls-1" d="M350.49,353.21c9.51,14.46,18.59,31.35,26.57,48,4.27,8.94,8.33,20.24,11.54,26.42,5,9.6,18.43,21.54,33.8,15.59,11-4.26,20.3-24.34,12.85-44.51-6.89-18.64-21.49-17.5-36.55-26.34-8.63-5-14.44-18.53-19.23-25.94-5.75-8.95-23.33-34.59-37.39-26.16C330.57,327.11,345.05,345,350.49,353.21Z"/><path class="cls-8" d="M130.84,74.29c13.55,9.23,21.64,20.95,18.09,26.18s-17.47,2-31-7.22-21.66-21-18.09-26.2S117.28,65.07,130.84,74.29Z"/><path class="cls-8" d="M313.58,41.53c-9.6,13.32-13.21,27.08-8.07,30.8s17.07-4.08,26.63-17.39,13.2-27.11,8.06-30.79S323.12,28.24,313.58,41.53Z"/></svg>