<?xml version="1.0" standalone="no"?>
<!DOCTYPE svg PUBLIC "-//W3C//DTD SVG 20010904//EN"
 "http://www.w3.org/TR/2001/REC-SVG-20010904/DTD/svg10.dtd">
<svg version="1.0" xmlns="http://www.w3.org/2000/svg"
 width="400.000000pt" height="400.000000pt" viewBox="0 0 400.000000 400.000000"
 preserveAspectRatio="xMidYMid meet">

<g transform="translate(0.000000,400.000000) scale(0.100000,-0.100000)"
fill="#000000" stroke="none">
<path d="M0 2000 l0 -2000 2000 0 2000 0 0 2000 0 2000 -2000 0 -2000 0 0
-2000z m2472 1380 c25 -40 -57 -193 -135 -250 -117 -86 -131 37 -20 182 58 77
130 108 155 68z m-1293 -265 c111 -61 181 -175 117 -191 -105 -26 -349 190
-254 225 30 11 75 0 137 -34z m1789 -148 c54 -53 86 -133 79 -201 -6 -67 -40
-97 -149 -130 -155 -47 -228 -116 -412 -391 -65 -96 -130 -184 -143 -195 -31
-24 -95 -27 -117 -4 -34 34 -18 84 125 379 84 173 327 465 464 556 71 48 91
46 153 -14z m-46 -663 c40 -72 46 -137 19 -200 -37 -82 -88 -122 -196 -150
-51 -14 -181 -19 -209 -8 -38 15 -16 81 71 217 101 158 150 198 237 194 47 -2
49 -3 78 -53z m-896 -99 c39 -44 58 -108 51 -172 -3 -38 10 -105 64 -313 79
-308 124 -577 117 -693 -4 -62 -10 -81 -36 -119 -17 -25 -38 -48 -47 -52 -36
-13 -114 42 -145 104 -51 100 -111 411 -141 730 -17 191 -26 246 -45 292 -58
139 0 278 111 264 30 -3 48 -13 71 -41z m-973 -192 c18 -9 75 -47 127 -86 165
-121 196 -162 153 -199 -55 -47 -244 -72 -330 -44 -68 23 -119 75 -139 144
-15 50 -14 116 3 159 16 41 127 57 186 26z m1762 -174 c78 -16 261 -111 353
-185 123 -97 168 -184 142 -273 -12 -42 -24 -51 -71 -51 -47 0 -104 38 -209
140 -135 131 -227 191 -387 249 -59 22 -113 59 -113 79 0 20 41 44 87 52 52 8
119 5 198 -11z m-1323 -206 c10 -9 18 -24 18 -34 0 -11 -63 -82 -143 -161
l-142 -143 -77 -156 c-81 -166 -111 -203 -173 -215 -99 -18 -136 120 -70 263
58 127 203 306 304 376 51 35 191 87 235 87 16 0 38 -7 48 -17z m1073 -17 c44
-26 101 -94 155 -186 50 -83 86 -116 159 -145 36 -15 78 -36 94 -47 68 -48 93
-190 48 -276 -43 -84 -122 -104 -204 -53 -38 25 -51 42 -79 103 -65 145 -165
335 -225 428 -75 118 -82 142 -49 175 31 31 49 31 101 1z m-935 -156 c25 -25
26 -69 1 -168 -35 -136 -52 -244 -62 -391 -12 -169 -29 -225 -78 -258 -48 -33
-119 -32 -160 2 -69 59 -102 160 -82 251 11 46 20 59 78 110 77 68 95 103 123
238 22 109 42 161 73 194 40 44 78 51 107 22z"/>
</g>
</svg>
